<?xml version="1.0" encoding="UTF-8"?>
<svg id="Layer_1" xmlns="http://www.w3.org/2000/svg" version="1.1" viewBox="0 0 595.28 590.57">
  <!-- Generator: Adobe Illustrator 30.0.0, SVG Export Plug-In . SVG Version: 2.1.1 Build 123)  -->
  <defs>
    <style>
      .st0 {
        font-size: 17.09px;
      }

      .st0, .st1 {
        font-family: Anton-Regular, ZLGLTK+Anton-Regular;
      }

      .st1 {
        font-size: 14.89px;
      }
    </style>
  </defs>
  <g>
    <path d="M-383.28-44.11l14.11,33.63-28.26,13.44,20.48,13.78c2.52.13,11.96-8.23,14.94-10.02.91-.54.48-1.35,1.63.02,3.68,4.4,6.57,17.48,10.37,22.89l-9.09,17.92,11.24-12.48,57.9,124.13c-6.89-6.75-13.28-14.28-19.59-21.65-31.3-36.6-61.4-74.99-84.2-117.56-1.59-.25-4.79,2.69-6.2,3.8-6.68,5.28-13.15,12.23-19.58,17.92l-2.89-4.15c.08,1.79-2.58,3.08-2.54,4.56.03,1.14,1.43,1.96,1.57,2.69.35,1.84-23.56,21.12-24.88,26.06,11.75,1.24,23.65.18,35.4.85,3.24.18,12.27.85,14.8,1.87,2.08.84,7.5,11.7,6.28,13.79l-25.41,21.74-20.24-9.07,5.71,20.22-11.1,9.75-17.1-8.32,1.23,22.49-20.04,16.64-4.08-3.85-17.09,4.31-14.22-15.02c0-2.3,12.34-11.57,14.65-14.54,2.02-2.6,1.87-5.92,5.8-7.37,7.89,5.02,3.09,14.72,4.97,22.35l10.43,4.15-6.24-15.02,17.78-21.35.08-1.9-4.95-2.13c.94-1.2,12.45-8.14,10.82-9.58l-25.82.82,3.82-6.71c-2.7-2.52-3.66-10.01-7.52-10-1.1,0-8.09,1.18-8.43,1.66l1.31,14.22-10.84.84-.37-14.97,37.85-40.48c2.57-1.16,11.68,11.93,13.34,10.45l3.77-28.31,22.06-23.76,9.03.28,4.2-7.09-2.02-4.43,37.11-37.5ZM-417.42,17.55l4.13-3.8c-4.72-6.5-4.46-1.04-4.13,3.8ZM-438.26,42.54c-2.56-4.12-2.89-10.14-6.66-13.32l-3.34,14.16,9.99-.84ZM-453.26,61.71l-7.14,2.46,1.32,5.03,5.82-7.49ZM-484.91,71.7c.82.96,7.55-4.08,1.23-5.82-2.39-.66-.81,5.07-1.23,5.82ZM-467.42,70.87l-4.6-4.11-2.89,4.95,7.49-.84ZM-421.6,97.54l6.67-15.83-13.32,5.84c-.46.62,3.96,7.92,4.76,8.94.53.68-.02,1.52,1.9,1.05ZM-457.42,93.36c-.39-1.27-6.14-9.75-7.49-8.32l-1.67,7.49,9.16.83ZM-474.92,88.38l-5.83-1.67.83,6.66c.77.97,5.92-3.98,5-4.99Z"/>
    <path d="M-584.9,200.85l20.87-12.04,3.27-.43,1.34,6.66-14.82,28.13-88.96,34.34c-.97-.91,6.49-7.82,7.48-8.76,4.92-4.62,11-9.39,16.28-13.72,26.13-21.4,53.53-41.54,80.13-62.38,4.46-2.73,6.83,6.74,11.08,8.2l3.28-17.98,23.15-16.92c1.46-.39,5.04,2.9,6.47,4.09,1.78,1.48,14.15,12.81,14.65,13.68,1.04,1.84,2.14,13.39.78,15.03-14.83,12.82-29.5,24.62-47.9,32.07l-11.65-29.12-25.42,19.13ZM-514.92,178.36l-7.48,1.25,6.64,5.41.84-6.66ZM-579.91,215.02c-5.4,2.83-11.72,3.65-6.24,10.81l6.24-10.81ZM-615.73,228.34c.35-.46-2.77-3.68-4.95-2.92-3.29,1.15-12,10.94-15.05,13.76l19.99-10.83Z"/>
    <path d="M-440.75-59.11l13.33-5.82c-1.99,12.2-3.53,25.15-7.86,36.71-7.41,3.94-20.74,21.36-27.74,23.09-1.71.42-3.5.15-5.22.2,3.78,4.1-6.58,12.97-9.6,14.15-1.05.41-1.5-.14-1.26-1.2l-2.46-9.62-4.73,13.39-21.11,4.92c1.16-2.83,4.69-6.64,4.99-9.65.51-5.2-4.05-2.2-4.23-6.58-.06-1.46,3.34-18.71,3.85-19.57.64-1.07,4.14-2.5,4.98-4.19l.41,4.15c6.06-.75,9.41-7.27,13-11.58l.37-1.32-1.67-1.62c3.27-7.44,10.76-3.49,17.3-5.63l12.78-25.13,11.05-8.11,28.41-44.91-8.94,43.55-15.64,14.76ZM-463.26-36.6c-1.17-1.07-16.38,9.48-18.7,10.87l-7.12,19.95,25.82-30.82ZM-442.43-31.61l-9.14,5.42,4.55,3.75,4.59-9.17Z"/>
    <path d="M-577.4,160.86c.24,1.3-.13,1.93-.79,2.95-3.07,4.74-10.96,9.12-14.62,13.7-1.55-2.09-.23-6.18-2.9-7.49l-4.17,10,5.82-1.25-27.19,26.91c-16.32-5.1-29.04-17.52-38.68-31.08-.01-1.22.64-1.38,1.41-1.96,7.39-5.55,18.01-9.66,25.72-15.1.98,2.01-1.99,5.33-1.81,7.1.15,1.39,4.11,3.15,3.82,4.86l-7.44,7.19,28.89-19.82c9.99,4.3,21.2,3.98,31.93,4ZM-619.15,189.93l3.42-9.9c-5.68,2.04-7.33,2.78-9.13,8.78-.67,2.23,4.47,1.03,5.71,1.12Z"/>
    <path d="M-421.6-128.26l-25.08,48.65-9.8,6.03-13.41,30.75-6.69,1.21,5.43-32.5c-2.23-3.69-7.85,1.57-10,3.37-6.64,5.55-12.85,12.77-19.59,18.31l6.78-24.04c3.99-1.34,10.48,2.27,13.7-.06,2.78-2.02,8.2-17.99,11.67-22.49,1.6-2.08,22.53-22.5,24.07-23.43,5.15-3.09,16.93-3.19,22.93-5.81ZM-456.59-87.44c.77-1.07-4.57-7.81-4.99-7.49l-5.01,10.82,10-3.34Z"/>
    <path d="M-395.77-215.74l-14,67.22c-4.88,11.29-22.97,12.64-32.64,18.59-.89-1.17,5.81-24.14,5.89-28.75.07-4.52-4.25-14.25-2.99-17.05l37.91-36.29,5.84-3.73Z"/>
    <path d="M-533.24-47.86c.02,2.72,1.57,4.46-.8,8.15-.74,1.16-3.01.97-2.53,3.09l6.31,1.64c1.08,1.56-.44,3.37-1.32,4.61-2.99,4.23-24.73,12.79-30.57,14.43-1.32.37-2.11.66-1.91-1.07.85-7.36,7.18-16.43,4.15-24.6l-9.58,5.79-9.61-10.44-27.46,17.97,29.76-23.98c3.26.99,4.73-.32,7.46-1.7,12.18-6.15,23.81-15.55,36.1-21.8.04,9.29-.06,18.61,0,27.91Z"/>
    <polygon points="-494.08 -80.77 -477.23 -138.49 -454.51 -159.93 -450.09 -123.01 -471.95 -99.88 -481.17 -80.77 -494.08 -80.77"/>
    <path d="M-509.92,5.06l-1,10.66-18.98,15.59c.77,1.33,1.87-.31,2.58-.75,5.21-3.26,10.27-6.84,15.74-9.67.67.89-3.5,19.83-4.38,21.85-.92,2.11-6.71,9.44-8.51,11.48-4.32,4.88-9.74,8.56-14.17,13.31-2.39-5.1-7.24-4.89-11.23-7.89l4.12-7.53c-.06-2.94-6.81-4.66-7.48-8.35-.28-1.57,1.73-14.51,2.43-15.66,8.18-3.71,15.03-9.31,21.77-15.1,1.19-1.02,1.67-2.86,2.97-3.7,1.13-.73,15.58-4.86,16.15-4.25Z"/>
    <path d="M-593.3,3.44l9.1,17.18c.13,1.48-10.52,12.7-12.44,13.94-4.68,3.01-16.15,5.22-19.54,7.95s-5.79,12.27-7.03,16.3l-20.01,4.56c-1.37-1.28,11.36-12.46,11.65-15.45.33-3.38-6.17-16.33-4.85-18.56l43.12-25.92Z"/>
    <path d="M-576.57-32.46l-24.15,17.93c.77,1.33,1.87-.31,2.58-.75,3.39-2.11,6.83-4.3,10.17-6.49,1.89-1.24,11.89-9.29,13.07-8.18l4.23,19.46-14.65,12.96c-1.28,0-6.9-10.6-9.79-9.8l-42.28,20.7,52.05-53.35c1.67.66,9.87,5.93,8.77,7.52Z"/>
    <path d="M-636.66,130.96c1.44,2.48-8.06,9.05-8.22,12.4l13.74-9.98,2.81,7.36-62.38,41.77c6.9-6.53,14.81-13.37,23.28-17.58-.12-3.61-1.71-6.87-3.7-9.89-3.58,2.03-7.13,4.85-10.71,6.78-.94.5-2.96,2.23-3.88,1.12,2.88-4,24.87-14.46,25.69-16.81.26-.75.54-3.1-.27-3.61l-11.65,7.5-.88-2.53,11.28-9.13-12.08,7.47c-1,.01-2.84-5.53-1.71-6.66l23.55-15.71,15.13,7.48Z"/>
    <path d="M-621.56,65.88l-8.09,16.7-56.9,28.28,26.66-20.41c-1.32-.85-3.76,1-5.01,1.65-4.76,2.48-9.09,5.94-14.14,7.93-.42-.58.49-12.92,2.52-13.72l33.92-19.4,21.04-1.03Z"/>
    <path d="M-550.02,66c.83,1.39-4.17,10.64-5.75,11.93l-46.63,26.27,14.64-10.81c.62-.83-.92-1.28-1-2.08-.23-2.39,18.01-18.39,20.52-21.68l-14.57,7.09,2.09-7.07,27.07-16.26c1.27,3.11-.39,7.17.56,10.25.59,1.9,2.83,1.95,3.07,2.36Z"/>
    <path d="M-675.71,79.21c4.72-16.28,13.09-31.26,22.9-44.98l14.18,13.32c1.69,1.41-4.01,10.93-4.6,11.29-.96.59-3.19-.89-4.43.46l-28.05,19.91Z"/>
    <path d="M-496.57-85.77l-4.59-11.65-15.43,10.39,2.1-16.23,17.46-16.68,7.02,10.37c-1.27,6.77-2.57,15.23-4.95,21.68-.33.89-.38,2-1.62,2.12Z"/>
    <path d="M-544.91-16.6c-2.53,3.39-5.55,6.4-8.33,9.57-6.82,7.79-13.41,14.14-21.24,21.25-1.2,1.09-1.86,4.22-3.78,2.94l-5.73-12.82c5.21-2.68,8.73-8.56,13.24-12.21,6.67-5.39,17.69-5.96,25.84-8.73Z"/>
    <path d="M-532.41.06c-2.24,7.22.09,12.25-5.83,17.91-5.89,5.65-14.14,8.92-22.08,10.42l4.56-9.18-11.65,3.33,4.98-5.43c6.22-2.96,14.65-14.16,20.03-16.63,2.62-1.2,7.06-.05,9.98-.42Z"/>
    <path d="M-390.76,2.54l.52-1.65c15.87-5.77,30.83-11.28,47.8-13.33l-32.46,24.67c-3.23.93-12.15-8.6-15.85-9.69Z"/>
    <path d="M-508.24-67.44l10.41-12.49c.64-.12.5.76.42,1.25-.75,4.92-9.8,30.39-12.51,34.15-.49.68-3.81,3.98-4.15,3.75-1.42-5.43-8.43-9.87-4.23-15.47,7.73,2.91,9.96-4.12,10.87-10.35l-5.58,6.7c-2.71.66-4.03-1.52-5.63-1.62-.89-.06-8.28,3.1-7.11.35l17.91-22.09-.41,15.82Z"/>
    <path d="M-468.27,15.06l11.51,16.42-1.5,20.23-6.67-5.4-9.8-10.11c1.87-6.53,2.88-13.42,4.79-19.93.35-1.21-.48-1.46,1.67-1.21Z"/>
    <path d="M-614.9,85.04c.4,2.04,1.82,4.42.02,6.26l-25,13.32,5.82-2.09.83,22.5-14.77-6.04-1.78-11.32,16.16-10.95,1.64,1.66,17.08-13.33Z"/>
    <path d="M-571.57,92.53c9.36-8.35,22.92-11.02,25.84-24.99,1.26-.34,1.38.33,2.08.82,1.11.77,10.22,9.81,10.35,10.54l-11.31,14.33-10.7-6.2-16.26,5.5Z"/>
    <path d="M-324.11,22.54l32.49-50.82c.35,7.53-.64,14.98-1.26,22.48-9.71,8.1-18.77,18.67-28.31,26.68-.94.79-1.35,2.02-2.92,1.66Z"/>
    <path d="M-579.07-59.95l53.32-45.82c-.7,3.35,1.5,6.86.49,10.03-.22.69-7.37,11.71-7.98,12.1-1.94,1.24-7.37-2.34-9.76-.7l-36.07,24.38Z"/>
    <polygon points="-490.74 191.69 -495.82 167.22 -483.81 163.44 -476.71 177.82 -490.74 191.69"/>
    <path d="M-529.91-18.29c1.79-3.81,5.8-25.76,10.33-24.95,2.29,2.34,10.25,13.37,9.56,16.03-.19.75-7.04,7.56-8.21,8.51-5.9,4.79-5.16,1.7-11.68.4Z"/>
    <path d="M-452.42,152.52l-4.17-24.15c2.96.39,21.63,7.4,21.64,8.74-4.94,4.02-10.1,10.43-14.98,14.17-.84.64-1.06,1.62-2.5,1.24Z"/>
    <path d="M-480.75,26.3c-.94,4.6-8.16,12.65-9.18,17.91-1,.72-7.03-5.49-7.92-6.65-.73-.94-2.2-2.43-1.96-3.66l11.55-10.11,7.5-12.08c-.6,4.3.82,10.59,0,14.58Z"/>
    <path d="M-464.94-184.94c-11.7-3.69-20.01,5.02-30.8,7.51l36.25-28.32-5.45,20.81Z"/>
    <path d="M-535.74-146.6l-46.66,30,37.53-33.77c1.45-1.33,9.8,2.79,9.13,3.77Z"/>
    <path d="M-524.08,140.02l24.99-28.32c-.27,6.28-.52,12.81-2.42,18.82l-22.57,9.5Z"/>
    <path d="M-486.59-121.6c-8.29-6.28-17.36,2.03-24.98,5.83-.45-1.84,1.06-1.86,1.9-2.67,9.33-8.98,19.25-17.42,28.5-26.49l-5.43,23.32Z"/>
    <path d="M-405.77-64.94c-2.18.25-1.32-.03-1.67-1.22-.49-1.64-.95-5.83-2.46-6.71-1.03-.6-5.94-.77-7.96-1.21-1.15-.26-2.41.72-2.05-1.26l26.65-15.43-12.5,25.83Z"/>
    <path d="M-579.06,65.04c-1.02-1.1,3.58-7.6.43-6.65-3.32,1-9.02,4.68-12.97,6.2-1.07.41-3.19,1.88-4.13.87,4.58-2.05,17.41-13.49,21.28-13.73,1.45-.09,2.79.84,4.71.64,2.68-.29,14.2-4.76,14.83-1.9.29,1.32-1.11,1.72-1.91,2.24l-22.24,12.33Z"/>
    <polygon points="-480.21 108.45 -469.93 114.62 -482.82 128.36 -490.69 118.9 -480.21 108.45"/>
    <path d="M-640.72-21.61c-.83-1.08,9.64-21.26,11.24-24.15l9.59,12.88-20.83,11.27Z"/>
    <path d="M-517.41,231.67l-30.82,25.01,23.77-31.66c1.48.57,8.09,5.13,7.05,6.65Z"/>
    <path d="M-583.22,249.18l22.48-38.33c-.57,3.7,2.39,8.3,1.26,11.61-.47,1.38-5.27,6.73-6.65,8.4-5.27,6.35-11.33,12.4-17.08,18.32Z"/>
    <polygon points="-716.54 147.52 -684.06 125.03 -680.81 132.26 -681.56 133.76 -716.54 147.52"/>
    <path d="M-412.33-137.52l.69-2.86,24.2-24.54-17.05,30.9c-1.94,1.53-5.65-3.37-7.84-3.51Z"/>
    <path d="M-337.44-45.77c.3,1.11-.32,1.48-.67,2.24-.66,1.39-6.73,10.56-7.59,11.39-.78.75-1,.65-2.1.57l-10.46-15.86,20.82,1.67Z"/>
    <polygon points="-489.91 18.39 -509.9 40.88 -507.05 21.66 -489.91 18.39"/>
    <path d="M-509.08.05l-18.33,4.17,15.01-20.82c1.12.15,1.46,1.13,1.62,2.11.75,4.54.41,9.92,1.7,14.54Z"/>
    <polygon points="-764.04 201.68 -729.05 176.69 -731.55 187.1 -764.04 201.68"/>
    <path d="M-594.9,118.37l-1.65-.37,6.67-15.02c5.71-2.08,10.27-6.23,16.64-4.6-6.08,7.87-14.48,13.28-21.66,19.99l19.16-10.83.85,4.16-19.6,8.33-.4-1.65Z"/>
    <polygon points="-414.32 159.2 -423.24 173.97 -425.15 175.02 -428.48 154.19 -414.32 159.2"/>
    <path d="M-384.1,50.04l-3.34,14.16c-3.81-3.77-8.62-6.81-12.5-10.4-1.08-1-2.69-2.09-2.49-3.76h18.33Z"/>
    <path d="M-559.07,160.02l8.74-19.98,6.24,15.38c-.26,1.24-12.76,4.17-14.99,4.61Z"/>
    <polygon points="-635.73 -.77 -671.55 20.04 -652.32 2.2 -635.73 -.77"/>
    <path d="M-412.43,113.38c.33,2.13-.19,1.29-1.17,1.74-4.12,1.87-8.87,2.96-12.98,4.92l-5.84-14.99c.76-.77,17.08,8.51,19.99,8.34Z"/>
    <path d="M-493.24,105.87l-3.4-16.18,6.2-2c1.81.35,4.27,6.67,5.43,8.47l-8.23,9.7Z"/>
    <path d="M-609.06,50.04l-2.08,16.66c-6.96-4.49-9.07-7.38-7.04-15.78l9.12-.88Z"/>
    <path d="M-531.57,109.19l2.51-15.83c2.05.49,12.48,3.45,12.47,5.42-1.73,1.91-3.85,3.39-5.89,4.93-1.02.77-8.6,5.89-9.09,5.48Z"/>
    <path d="M-624.06,161.69c-.33-.35,2.13-8.46,2.9-9.17,1.09-1,2.92-.71,4.21-1.62,3.4-2.4,5.22-6.88,8.71-9.2l.44,9.18-16.25,10.81Z"/>
    <path d="M-566.57,133.37l-4.72,10.03-19.44-.87c.23-1.44,1.66-1.45,2.69-1.89,6.84-2.92,14.52-4.56,21.47-7.27Z"/>
    <path d="M-718.21,84.22c.46,1.98-.35,1.34-1.08,1.85-7.17,4.93-15.02,9.1-22.24,13.97-.36-1.56.87-1.98,1.65-2.92,4.29-5.08,8.89-9.98,13.3-14.96l8.37,2.06Z"/>
    <path d="M-557.41,30.88l.82,10.81-16.65,2.51c1.02-1.96,14.25-15.13,15.83-13.32Z"/>
    <path d="M-520.02-82.54l-14.89,5.93,12.09-17.49c2.68-.66,2.81,9.6,2.79,11.56Z"/>
    <path d="M-508.25,78.36c-2.46.25-9.07,2.55-10.87,1.31l-4.12-9.62,9.99.42,5,7.9Z"/>
    <path d="M-427.58-13.44l-16.5,6.82,17.92-19.15c1.01,4.05-1.4,8.21-1.41,12.33Z"/>
    <path d="M-614.9,121.71l-4.13,16.3-9.2-2.15c-.51-.67,9.59-11.6,10.84-12.89.79-.82,1.09-1.58,2.49-1.25Z"/>
    <path d="M-519.08,121.71l-17.48,7.49,5.86-12.46c1.42-.99,9.11,5.13,11.62,4.98Z"/>
    <path d="M-501.56-47.41l12.47-3.37c.84,1.05-8.39,12.89-9.57,14.98-1.28.04-2.55-9.97-2.9-11.61Z"/>
    <path d="M-688.33,59.93c-1.99.19-4.15.27-6.15.12-1.24-.09-2.41.65-2.06-1.24l12.48-14.59-4.28,15.71Z"/>
    <polygon points="-697.39 200.86 -701.11 209.21 -719.04 218.34 -697.39 200.86"/>
    <path d="M-599.19,272.66c.32.19,3.7,6.13,3.44,6.48-1.98-.18-12.77,10.67-13.31,10.03l7.58-16.58c.71-.14,1.69-.29,2.29.07Z"/>
    <path d="M-521.58,57.53l10.82-10.82c-.02,1.8,3.13,8.81,1.72,9.61l-12.54,1.21Z"/>
    <path d="M-708.21,272.5l8.41-14.11c1.91-.53,6.27,3.47,5.39,4.96l-13.8,9.14Z"/>
    <polygon points="-295.79 28.38 -302.86 44.2 -307.43 37.19 -295.79 28.38"/>
    <path d="M-572.4,122.52c1.36-3.87.68-8,1.69-12.07.24-.97-.64-1.52,1.22-1.25l7.08,6.24c-1.6.99-8.54,8.19-9.98,7.07Z"/>
    <path d="M-391.6,120.04l-5.42,12.47-5.4-7.84c.28-1.26,10.06-5.22,10.82-4.63Z"/>
    <polygon points="-369.13 -59.91 -367.44 -51.61 -382.43 -57.86 -369.13 -59.91"/>
    <path d="M-380.76-119.94l-9.17,2.5,3.34-13.32c1.27.47,2.25,2.93,2.92,4.15.57,1.03,3.35,6.18,2.9,6.67Z"/>
    <path d="M-689.05,213.34l21.65-16.66c3.18,3.99-13.27,12.72-16.1,14.31-1.64.93-3.67,2.18-5.56,2.35Z"/>
    <path d="M-699.04,95.03l-.83-12.49,8.27,5.53c.2,1.21-6.62,7.87-7.43,6.96Z"/>
    <path d="M-454.92,2.55c-4.28-.05-8.74,1.01-11.65-2.91l7.79-4.47,3.86,7.38Z"/>
    <path d="M-511.58,91.71c.4,7.82,2.93,9.03-2.26,15.61-.53.67.02,1.54-1.89,1.05l-1.59-5.26c3.2-3.36,7.77-5.24,1.59-8.49l4.15-2.91Z"/>
    <path d="M-490.76-36.6l3.26,6.08-6.56,5.58c-3.09-4.98.6-6.29,1.6-11.18l1.7-.48Z"/>
    <path d="M-421.6-2.44l-5.79,4.64-8.37-1.32c4.28-3.89,8.66-6.59,14.16-3.31Z"/>
    <path d="M-525.88-37.59c-1.24.77-6.05.07-7.36-1.1l11.65-10.42-4.29,11.52Z"/>
    <path d="M-379.52-194.15c-.54,2.34-.61,4.69-.85,7.07-.13,1.21.73,2.44-1.21,2.09l-7.09-8.32,9.16-.84Z"/>
    <polygon points="-501.57 64.21 -497 53.38 -491.6 58.79 -501.57 64.21"/>
    <polygon points="-684.05 236.67 -666.56 222.52 -668.24 227.91 -684.05 236.67"/>
    <path d="M-537.41-5.79c-4.05.09-8.05-.52-12.09-.83-.93-.07-2.29.58-2.07-.81l8.62-4.04,5.53,5.69Z"/>
    <polygon points="-384.94 -62.43 -394.09 -54.11 -393.25 -63.26 -384.94 -62.43"/>
    <path d="M-585.73,38.39c-2.36,2.78-4.58,5.64-5.94,9.09l-6.55-2.85,12.49-6.24Z"/>
    <polygon points="-461.59 195.03 -466.17 204.17 -469.08 194.2 -461.59 195.03"/>
    <path d="M-744.88,249.16l-9.16,5.84,3.34-9.99c1.14.83,7.16,2.23,5.82,4.15Z"/>
    <path d="M-570.74-88.27v5.84c-.53.53-9.02-1.41-9.99-2.92,1.47-.63,9.22-3.67,9.99-2.91Z"/>
    <path d="M-508.25-151.59l-.84,7.49h-7.49c-.3-1.46.75-2.06,1.65-2.92.62-.6,6.16-5.15,6.67-4.57Z"/>
    <path d="M-341.62,27.55l-4.98-2.08c3.22-3.3,2-6.76,7.49-7.09l-2.5,9.16Z"/>
    <polygon points="-676.55 189.18 -688.22 190.85 -677.8 184.2 -676.55 189.18"/>
    <polygon points="-569.07 158.36 -576.57 157.52 -571.15 150.03 -569.07 158.36"/>
    <path d="M-456.71,173.83c.85.76-3.28,6.92-4.58,7.48l-2.92-6.64,7.5-.84Z"/>
    <path d="M-629.89,262.52c-1.59,1.23-4.57,10.6-6.65,9.15l-2.52-4.98,9.17-4.17Z"/>
    <polygon points="-700.72 10.89 -700.72 16.71 -710.71 15.04 -700.72 10.89"/>
    <path d="M-404.09,142.53c.29.27-.65,6.71-.87,7.9-.25,1.36.56,1.45-1.63,1.27l-2.5-10,5,.83Z"/>
    <path d="M-539.91,113.36l-5.83-1.67c-.37-3.03,2.9-4.61,3.34-7.48,2.86,1.74.73,6.51,2.49,9.15Z"/>
    <path d="M-375.77,87.55l-2.51,5.82c-1.43,1.04-4.37-3.57-4.98-4.59-.3-.95,6.45-1.6,7.49-1.23Z"/>
    <polygon points="-595.76 87.51 -603.23 88.36 -596.98 81.71 -595.76 87.51"/>
    <path d="M-483.26,205.85c-1.56.12-.8-2.69-.72-3.63.08-.93.32-5.91,1.97-5.52l2.72,2.9-3.97,6.25Z"/>
    <path d="M-412.43-48.28l-6.66,3.34v-5c2.19.16,5.65-.91,6.66,1.66Z"/>
    <path d="M-578.23,180.85l2.08-8.32,2.79,4.46c-.48.95-3.98,4.76-4.87,3.86Z"/>
    <polygon points="-704.88 123.36 -712.38 124.19 -708.62 119.21 -704.88 123.36"/>
    <path d="M-760.71,122.54c-.51.7-2.19,7.55-3.32,6.66l-1.67-7.5,4.99.84Z"/>
    <polygon points="-640.72 224.18 -634.07 219.18 -634.84 223.82 -640.72 224.18"/>
    <path d="M-778.2,190.03c-.88.58-1.42,7.6-3.32,5.82l-1.68-5.82h5Z"/>
    <polygon points="-682.38 288.34 -688.21 287.93 -682.39 283.34 -682.38 288.34"/>
    <path d="M-783.2,241.67l6.66-6.66c-.32,4.59-1.82,6.72-6.66,6.66Z"/>
    <path d="M-602.4,192.52l.84,4.99-5,.84c.08-.96,2.97-7.24,4.16-5.83Z"/>
    <path d="M-362.1,126.25c-1.91.47-1.36-.37-1.9-1.05-.79-1.01-5.21-8.32-4.76-8.94l13.32-5.84-6.67,15.83Z"/>
    <path d="M-332.37-72.45l-9.99.84,3.34-14.16c3.77,3.18,4.1,9.21,6.66,13.32Z"/>
    <path d="M-374.93,168.84l-9.16-.83,1.67-7.49c1.36-1.43,7.1,7.05,7.49,8.32Z"/>
    <polygon points="-298.04 87.96 -303.85 95.45 -305.18 90.42 -298.04 87.96"/>
    <path d="M-316.96,59.99c.92,1.01-4.22,5.96-5,4.99l-.83-6.66,5.83,1.67Z"/>
    <polygon points="-368.28 -77.05 -375.77 -76.21 -372.87 -81.17 -368.28 -77.05"/>
    <path d="M-323.95-5.24c-.33-4.84-.59-10.31,4.13-3.8l-4.13,3.8Z"/>
    <path d="M-309.32-40.31c.42-.75-1.16-6.47,1.23-5.82,6.32,1.74-.41,6.78-1.23,5.82Z"/>
    <path d="M-596.58,249.04l-19.99,10.83c3.04-2.82,11.75-12.61,15.05-13.76,2.17-.76,5.3,2.46,4.95,2.92Z"/>
    <path d="M-560.74,252.94l-6.24,10.81c-5.48-7.17.84-7.99,6.24-10.81Z"/>
    <polygon points="-507.84 204.17 -508.68 210.83 -515.32 205.42 -507.84 204.17"/>
    <path d="M-342.52-118.22l-25.82,30.82,7.12-19.95c2.31-1.4,17.52-11.94,18.7-10.87Z"/>
    <polygon points="-346.29 -134.51 -350.88 -125.34 -355.43 -129.1 -346.29 -134.51"/>
    <path d="M-334.1,143.21c-1.24-.09-6.38,1.11-5.71-1.12,1.8-6,3.45-6.74,9.13-8.78l-3.42,9.9Z"/>
    <path d="M-517.43-175.35l-10,3.34,5.01-10.82c.42-.32,5.76,6.42,4.99,7.49Z"/>
    <path d="M-722.65,144.38c-4.04-.28-7.99-1.01-12-1.54-.93-.12-2.32.17-2.02-.69l8.81-1.82,5.21,4.05Z"/>
    <path d="M-591.48-73.07l-10.24,2.48,5.9-10.36c.45-.28,5.2,6.88,4.34,7.88Z"/>
  </g>
  <path d="M448.28,215.85l13.87,33.05-27.77,13.2,20.13,13.54c2.47.13,11.75-8.09,14.68-9.84.89-.53.47-1.33,1.6.02,3.61,4.32,6.46,17.18,10.19,22.49l-8.94,17.6,11.05-12.27,56.9,121.98c-6.77-6.63-13.05-14.03-19.25-21.27-30.76-35.96-60.33-73.69-82.74-115.52-1.56-.24-4.71,2.64-6.09,3.73-6.57,5.19-12.93,12.01-19.24,17.61l-2.84-4.08c.08,1.76-2.53,3.03-2.5,4.48.03,1.12,1.41,1.93,1.55,2.64.35,1.81-23.15,20.76-24.44,25.61,11.55,1.22,23.24.18,34.79.84,3.18.18,12.06.83,14.54,1.83,2.05.83,7.37,11.5,6.17,13.55l-24.97,21.37-19.89-8.91,5.61,19.87-10.91,9.58-16.8-8.17,1.21,22.1-19.7,16.35-4.01-3.78-16.8,4.24-13.97-14.76c0-2.26,12.12-11.37,14.39-14.29,1.99-2.56,1.83-5.82,5.7-7.25,7.76,4.94,3.04,14.46,4.89,21.96l10.25,4.07-6.13-14.76,17.47-20.98.08-1.87-4.87-2.09c.92-1.18,12.23-8,10.64-9.42l-25.38.81,3.75-6.59c-2.66-2.48-3.59-9.84-7.39-9.82-1.08,0-7.95,1.16-8.29,1.63l1.29,13.97-10.65.83-.36-14.71,37.2-39.78c2.52-1.14,11.48,11.72,13.11,10.26l3.7-27.82,21.67-23.35,8.87.28,4.13-6.97-1.98-4.36,36.47-36.85ZM414.73,276.44l4.06-3.74c-4.64-6.39-4.38-1.02-4.06,3.74ZM394.26,300.99c-2.52-4.04-2.84-9.96-6.54-13.09l-3.28,13.91,9.82-.82ZM379.51,319.84l-7.02,2.42,1.3,4.95,5.72-7.36ZM348.41,329.65c.8.94,7.42-4.01,1.21-5.71-2.35-.65-.79,4.98-1.21,5.71ZM365.6,328.83l-4.52-4.04-2.84,4.87,7.36-.83ZM410.62,355.04l6.55-15.56-13.09,5.74c-.45.61,3.9,7.79,4.68,8.78.52.67-.02,1.5,1.86,1.03ZM375.42,350.94c-.38-1.25-6.03-9.58-7.36-8.18l-1.64,7.36,9.01.82ZM358.23,346.04l-5.73-1.64.82,6.54c.76.96,5.82-3.91,4.91-4.9Z"/>
  <path d="M250.15,456.56l20.5-11.83,3.21-.42,1.31,6.54-14.57,27.64-87.42,33.75c-.96-.89,6.38-7.69,7.35-8.6,4.83-4.54,10.81-9.23,16-13.48,25.68-21.03,52.6-40.82,78.74-61.3,4.39-2.68,6.72,6.62,10.89,8.06l3.22-17.66,22.75-16.63c1.43-.38,4.95,2.85,6.36,4.02,1.75,1.46,13.91,12.59,14.39,13.45,1.02,1.81,2.1,13.16.76,14.77-14.58,12.59-28.99,24.19-47.07,31.51l-11.45-28.62-24.98,18.8ZM318.93,434.46l-7.35,1.22,6.52,5.32.82-6.54ZM255.06,470.49c-5.3,2.78-11.51,3.58-6.13,10.63l6.13-10.63ZM219.86,483.58c.35-.46-2.73-3.62-4.86-2.87-3.24,1.13-11.79,10.75-14.79,13.52l19.65-10.65Z"/>
  <path d="M391.8,201.1l13.1-5.72c-1.95,11.99-3.47,24.72-7.72,36.07-7.28,3.87-20.38,20.99-27.26,22.69-1.68.41-3.44.14-5.13.19,3.72,4.03-6.47,12.74-9.43,13.9-1.03.4-1.48-.14-1.24-1.18l-2.42-9.45-4.65,13.16-20.75,4.84c1.14-2.78,4.61-6.52,4.9-9.48.5-5.11-3.98-2.16-4.15-6.46-.06-1.44,3.28-18.39,3.79-19.23.63-1.05,4.07-2.46,4.9-4.12l.4,4.08c5.95-.74,9.25-7.15,12.78-11.38l.37-1.3-1.64-1.59c3.22-7.32,10.58-3.43,17-5.53l12.56-24.7,10.86-7.97,27.92-44.14-8.78,42.8-15.37,14.5ZM369.69,223.22c-1.15-1.05-16.1,9.31-18.37,10.68l-7,19.61,25.37-30.29ZM390.15,228.13l-8.98,5.32,4.47,3.69,4.51-9.01Z"/>
  <path d="M257.52,417.27c.24,1.27-.13,1.9-.78,2.9-3.02,4.66-10.77,8.96-14.37,13.47-1.52-2.06-.23-6.08-2.85-7.36l-4.1,9.82,5.72-1.23-26.71,26.45c-16.03-5.01-28.53-17.21-38.01-30.55-.01-1.2.63-1.36,1.39-1.93,7.26-5.45,17.7-9.49,25.27-14.84.97,1.98-1.96,5.23-1.77,6.97.14,1.36,4.04,3.1,3.76,4.78l-7.31,7.07,28.39-19.47c9.82,4.22,20.84,3.91,31.38,3.93ZM216.49,445.83l3.36-9.73c-5.58,2-7.21,2.73-8.97,8.63-.66,2.19,4.39,1.01,5.61,1.1Z"/>
  <path d="M410.63,133.16l-24.65,47.81-9.63,5.93-13.17,30.22-6.58,1.19,5.34-31.94c-2.19-3.62-7.71,1.55-9.83,3.31-6.53,5.45-12.63,12.55-19.25,17.99l6.66-23.63c3.93-1.32,10.3,2.23,13.46-.06,2.73-1.98,8.06-17.68,11.47-22.1,1.57-2.04,22.14-22.11,23.65-23.02,5.06-3.04,16.64-3.13,22.53-5.7ZM376.24,173.26c.75-1.05-4.49-7.67-4.9-7.36l-4.92,10.63,9.82-3.28Z"/>
  <path d="M436.01,47.19l-13.76,66.06c-4.8,11.09-22.57,12.42-32.08,18.27-.87-1.15,5.71-23.72,5.79-28.25.07-4.44-4.18-14-2.94-16.75l37.26-35.66,5.74-3.67Z"/>
  <path d="M300.92,212.16c.02,2.67,1.54,4.38-.78,8.01-.73,1.14-2.95.95-2.49,3.04l6.2,1.61c1.06,1.53-.43,3.31-1.3,4.53-2.94,4.15-24.3,12.57-30.04,14.18-1.29.36-2.07.65-1.88-1.05.84-7.23,7.05-16.14,4.08-24.18l-9.42,5.69-9.44-10.26-26.98,17.66,29.25-23.57c3.2.97,4.65-.32,7.33-1.67,11.97-6.04,23.4-15.28,35.48-21.42.04,9.13-.05,18.29,0,27.43Z"/>
  <polygon points="339.4 179.82 355.96 123.1 378.28 102.03 382.62 138.31 361.15 161.04 352.09 179.82 339.4 179.82"/>
  <path d="M323.84,264.16l-.99,10.48-18.65,15.32c.76,1.31,1.84-.3,2.54-.74,5.12-3.21,10.09-6.72,15.46-9.5.66.88-3.44,19.49-4.31,21.48-.9,2.07-6.59,9.28-8.37,11.28-4.25,4.79-9.57,8.41-13.93,13.08-2.35-5.02-7.11-4.81-11.03-7.76l4.05-7.4c-.06-2.88-6.7-4.58-7.35-8.2-.28-1.54,1.7-14.26,2.39-15.39,8.04-3.64,14.77-9.15,21.39-14.83,1.17-1,1.64-2.81,2.92-3.63,1.11-.72,15.31-4.78,15.87-4.18Z"/>
  <path d="M241.9,262.58l8.94,16.88c.12,1.45-10.34,12.48-12.22,13.69-4.6,2.96-15.87,5.13-19.2,7.82s-5.69,12.05-6.91,16.02l-19.67,4.48c-1.34-1.26,11.17-12.24,11.45-15.18.32-3.32-6.07-16.05-4.77-18.24l42.37-25.47Z"/>
  <path d="M258.34,227.3l-23.74,17.62c.76,1.31,1.84-.31,2.53-.74,3.33-2.08,6.71-4.23,10-6.38,1.86-1.22,11.68-9.13,12.84-8.04l4.16,19.12-14.39,12.73c-1.26,0-6.78-10.42-9.62-9.63l-41.55,20.34,51.15-52.43c1.64.65,9.7,5.83,8.62,7.39Z"/>
  <path d="M199.29,387.89c1.42,2.44-7.92,8.89-8.08,12.18l13.51-9.81,2.76,7.23-61.3,41.05c6.78-6.42,14.55-13.14,22.88-17.28-.12-3.55-1.68-6.75-3.63-9.72-3.52,2-7,4.77-10.52,6.66-.92.5-2.9,2.19-3.81,1.1,2.83-3.93,24.44-14.21,25.24-16.52.26-.74.53-3.05-.27-3.54l-11.45,7.37-.86-2.48,11.08-8.97-11.87,7.35c-.98.01-2.79-5.43-1.68-6.54l23.14-15.43,14.87,7.35Z"/>
  <path d="M214.12,323.93l-7.95,16.42-55.91,27.79,26.2-20.06c-1.3-.84-3.7.99-4.92,1.63-4.67,2.44-8.93,5.84-13.9,7.79-.41-.57.48-12.7,2.47-13.48l33.33-19.07,20.67-1.01Z"/>
  <path d="M284.43,324.05c.81,1.37-4.1,10.45-5.65,11.72l-45.82,25.81,14.38-10.63c.61-.81-.91-1.26-.98-2.05-.23-2.35,17.69-18.07,20.17-21.3l-14.32,6.97,2.06-6.95,26.6-15.98c1.25,3.06-.38,7.05.55,10.08.58,1.87,2.78,1.92,3.02,2.32Z"/>
  <path d="M160.92,337.03c4.64-16,12.86-30.72,22.51-44.2l13.94,13.09c1.66,1.39-3.94,10.74-4.53,11.1-.94.58-3.13-.88-4.35.45l-27.56,19.57Z"/>
  <path d="M336.95,174.91l-4.51-11.45-15.16,10.21,2.07-15.95,17.16-16.39,6.9,10.19c-1.25,6.65-2.53,14.97-4.86,21.3-.32.87-.37,1.96-1.59,2.08Z"/>
  <path d="M289.45,242.88c-2.49,3.33-5.46,6.29-8.19,9.41-6.71,7.65-13.17,13.9-20.87,20.88-1.18,1.07-1.83,4.15-3.71,2.89l-5.63-12.6c5.12-2.63,8.58-8.41,13.01-12,6.55-5.3,17.39-5.86,25.39-8.58Z"/>
  <path d="M301.74,259.25c-2.2,7.09.09,12.03-5.72,17.6-5.79,5.55-13.9,8.77-21.69,10.24l4.48-9.02-11.45,3.27,4.89-5.34c6.12-2.91,14.39-13.92,19.68-16.35,2.57-1.18,6.94-.05,9.81-.42Z"/>
  <path d="M440.93,261.68l.51-1.62c15.6-5.67,30.3-11.09,46.97-13.1l-31.9,24.24c-3.18.91-11.94-8.45-15.58-9.52Z"/>
  <path d="M325.49,192.92l10.23-12.27c.63-.12.49.75.41,1.23-.73,4.83-9.63,29.86-12.29,33.56-.48.66-3.75,3.91-4.08,3.69-1.39-5.34-8.28-9.7-4.15-15.21,7.6,2.85,9.78-4.04,10.69-10.17l-5.48,6.58c-2.66.65-3.96-1.49-5.53-1.59-.88-.06-8.14,3.04-6.99.34l17.6-21.7-.41,15.55Z"/>
  <path d="M364.76,273.99l11.31,16.14-1.47,19.88-6.56-5.31-9.63-9.94c1.84-6.42,2.83-13.19,4.71-19.59.35-1.18-.47-1.43,1.64-1.18Z"/>
  <path d="M220.67,342.76c.39,2.01,1.79,4.35.02,6.15l-24.57,13.09,5.72-2.05.82,22.11-14.52-5.94-1.75-11.13,15.88-10.76,1.61,1.63,16.78-13.1Z"/>
  <path d="M263.25,350.12c9.19-8.21,22.52-10.83,25.39-24.55,1.24-.34,1.36.33,2.05.81,1.09.75,10.04,9.64,10.17,10.36l-11.11,14.08-10.51-6.1-15.98,5.4Z"/>
  <path d="M506.43,281.34l31.92-49.94c.34,7.4-.63,14.72-1.24,22.09-9.54,7.96-18.44,18.35-27.82,26.22-.92.77-1.33,1.99-2.87,1.63Z"/>
  <path d="M255.88,200.28l52.39-45.02c-.69,3.29,1.47,6.74.48,9.86-.22.68-7.24,11.51-7.84,11.89-1.91,1.22-7.24-2.3-9.59-.69l-35.45,23.96Z"/>
  <polygon points="342.68 447.56 337.69 423.52 349.49 419.81 356.46 433.93 342.68 447.56"/>
  <path d="M304.19,241.22c1.76-3.74,5.7-25.31,10.15-24.52,2.25,2.3,10.07,13.14,9.4,15.76-.19.74-6.92,7.43-8.07,8.37-5.8,4.7-5.08,1.67-11.48.39Z"/>
  <path d="M380.34,409.07l-4.1-23.73c2.91.38,21.25,7.27,21.27,8.59-4.85,3.95-9.93,10.25-14.72,13.92-.82.63-1.04,1.59-2.46,1.22Z"/>
  <path d="M352.5,285.03c-.92,4.52-8.02,12.43-9.02,17.6-.98.71-6.9-5.39-7.78-6.53-.72-.93-2.17-2.38-1.93-3.6l11.35-9.93,7.37-11.87c-.59,4.22.8,10.41,0,14.33Z"/>
  <path d="M368.03,77.46c-11.49-3.63-19.66,4.94-30.27,7.38l35.62-27.83-5.35,20.44Z"/>
  <path d="M298.46,115.13l-45.85,29.48,36.88-33.18c1.43-1.31,9.63,2.74,8.97,3.7Z"/>
  <path d="M309.92,396.79l24.55-27.83c-.26,6.17-.52,12.59-2.37,18.5l-22.18,9.33Z"/>
  <path d="M346.76,139.7c-8.14-6.17-17.06,2-24.55,5.73-.45-1.81,1.04-1.82,1.87-2.62,9.17-8.82,18.91-17.12,28.01-26.03l-5.33,22.92Z"/>
  <path d="M426.18,195.38c-2.14.25-1.29-.03-1.64-1.2-.48-1.61-.93-5.73-2.42-6.6-1.01-.59-5.84-.75-7.83-1.19-1.13-.25-2.37.71-2.01-1.23l26.19-15.16-12.29,25.38Z"/>
  <path d="M255.89,323.1c-1-1.08,3.52-7.47.42-6.53-3.26.98-8.87,4.6-12.74,6.09-1.05.4-3.14,1.84-4.05.86,4.5-2.01,17.11-13.26,20.91-13.49,1.42-.09,2.74.83,4.63.63,2.63-.28,13.95-4.68,14.57-1.86.29,1.3-1.09,1.69-1.88,2.2l-21.86,12.11Z"/>
  <polygon points="353.03 365.77 363.13 371.82 350.46 385.33 342.73 376.03 353.03 365.77"/>
  <path d="M195.3,237.96c-.81-1.06,9.47-20.89,11.04-23.73l9.42,12.65-20.47,11.07Z"/>
  <path d="M316.47,486.85l-30.28,24.58,23.36-31.11c1.46.56,7.95,5.04,6.92,6.54Z"/>
  <path d="M251.8,504.06l22.09-37.66c-.56,3.64,2.35,8.16,1.24,11.41-.46,1.36-5.18,6.62-6.54,8.25-5.18,6.24-11.14,12.18-16.79,18Z"/>
  <polygon points="120.79 404.16 152.71 382.06 155.9 389.17 155.16 390.64 120.79 404.16"/>
  <path d="M419.74,124.05l.68-2.81,23.78-24.11-16.76,30.37c-1.91,1.51-5.55-3.31-7.7-3.44Z"/>
  <path d="M493.32,214.22c.29,1.09-.31,1.46-.66,2.2-.64,1.37-6.61,10.38-7.46,11.19-.77.74-.99.64-2.07.56l-10.28-15.58,20.46,1.64Z"/>
  <polygon points="343.49 277.26 323.85 299.36 326.66 280.48 343.49 277.26"/>
  <path d="M324.66,259.24l-18.01,4.09,14.75-20.46c1.1.15,1.43,1.11,1.59,2.08.73,4.46.4,9.75,1.67,14.29Z"/>
  <polygon points="74.12 457.38 108.5 432.82 106.04 443.05 74.12 457.38"/>
  <path d="M240.33,375.51l-1.62-.36,6.55-14.76c5.61-2.05,10.09-6.12,16.35-4.52-5.97,7.74-14.23,13.05-21.29,19.64l18.82-10.65.83,4.09-19.26,8.18-.39-1.63Z"/>
  <polygon points="417.78 415.63 409.01 430.14 407.14 431.18 403.87 410.71 417.78 415.63"/>
  <path d="M447.48,308.37l-3.28,13.92c-3.74-3.71-8.47-6.69-12.28-10.22-1.06-.98-2.64-2.05-2.45-3.69h18.01Z"/>
  <path d="M275.54,416.44l8.59-19.64,6.14,15.11c-.26,1.22-12.54,4.1-14.73,4.53Z"/>
  <polygon points="200.2 258.43 165 278.89 183.9 261.36 200.2 258.43"/>
  <path d="M419.64,370.6c.33,2.1-.19,1.27-1.15,1.71-4.05,1.84-8.71,2.91-12.76,4.83l-5.74-14.73c.75-.76,16.79,8.36,19.65,8.19Z"/>
  <path d="M340.23,363.23l-3.34-15.9,6.09-1.96c1.78.34,4.2,6.56,5.34,8.33l-8.09,9.54Z"/>
  <path d="M226.41,308.37l-2.04,16.37c-6.84-4.41-8.91-7.26-6.92-15.51l8.96-.87Z"/>
  <path d="M302.55,366.49l2.47-15.55c2.02.48,12.26,3.39,12.26,5.32-1.7,1.87-3.79,3.33-5.79,4.84-1.01.76-8.45,5.79-8.93,5.39Z"/>
  <path d="M211.67,418.08c-.33-.34,2.1-8.32,2.85-9.01,1.07-.99,2.87-.7,4.14-1.59,3.34-2.36,5.13-6.76,8.56-9.04l.43,9.02-15.97,10.63Z"/>
  <path d="M268.16,390.25l-4.64,9.85-19.1-.86c.22-1.42,1.63-1.42,2.64-1.85,6.72-2.87,14.27-4.49,21.1-7.14Z"/>
  <path d="M119.15,341.95c.45,1.95-.34,1.32-1.06,1.82-7.05,4.84-14.76,8.94-21.85,13.73-.36-1.53.85-1.95,1.63-2.87,4.21-4.99,8.74-9.81,13.07-14.7l8.22,2.03Z"/>
  <path d="M277.17,289.54l.81,10.62-16.36,2.47c1-1.93,14-14.86,15.55-13.09Z"/>
  <path d="M313.91,178.08l-14.63,5.83,11.88-17.18c2.64-.65,2.76,9.43,2.75,11.36Z"/>
  <path d="M325.48,336.2c-2.42.25-8.91,2.5-10.68,1.28l-4.05-9.46,9.82.41,4.91,7.76Z"/>
  <path d="M404.74,245.99l-16.22,6.7,17.61-18.82c1,3.98-1.38,8.07-1.39,12.12Z"/>
  <path d="M220.68,378.79l-4.06,16.02-9.04-2.12c-.51-.66,9.43-11.4,10.65-12.67.78-.81,1.07-1.55,2.44-1.23Z"/>
  <path d="M314.83,378.79l-17.18,7.36,5.76-12.25c1.39-.97,8.95,5.04,11.42,4.89Z"/>
  <path d="M332.05,212.61l12.26-3.31c.83,1.03-8.25,12.67-9.41,14.72-1.26.04-2.51-9.8-2.85-11.41Z"/>
  <path d="M148.51,318.08c-1.95.19-4.08.26-6.04.11-1.21-.09-2.36.64-2.02-1.22l12.27-14.34-4.2,15.44Z"/>
  <polygon points="139.62 456.57 135.96 464.78 118.33 473.75 139.62 456.57"/>
  <path d="M236.11,527.13c.31.18,3.64,6.02,3.39,6.37-1.94-.18-12.54,10.48-13.08,9.85l7.44-16.29c.7-.13,1.66-.28,2.25.07Z"/>
  <path d="M312.38,315.73l10.63-10.63c-.02,1.77,3.07,8.65,1.69,9.44l-12.32,1.19Z"/>
  <path d="M128.98,526.97l8.26-13.86c1.87-.52,6.16,3.41,5.3,4.88l-13.56,8.99Z"/>
  <polygon points="534.26 287.08 527.31 302.62 522.82 295.74 534.26 287.08"/>
  <path d="M262.44,379.59c1.34-3.8.67-7.86,1.66-11.86.24-.95-.63-1.49,1.2-1.23l6.96,6.13c-1.58.98-8.39,8.05-9.81,6.95Z"/>
  <path d="M440.11,377.15l-5.32,12.26-5.31-7.71c.27-1.24,9.89-5.13,10.63-4.55Z"/>
  <polygon points="462.18 200.32 463.84 208.48 449.12 202.34 462.18 200.32"/>
  <path d="M450.75,141.33l-9.01,2.46,3.29-13.09c1.25.46,2.21,2.88,2.87,4.07.56,1.02,3.29,6.07,2.85,6.56Z"/>
  <path d="M147.81,468.84l21.28-16.37c3.12,3.92-13.04,12.5-15.82,14.06-1.62.91-3.61,2.14-5.46,2.31Z"/>
  <path d="M137.99,352.58l-.82-12.27,8.12,5.43c.2,1.19-6.51,7.74-7.3,6.84Z"/>
  <path d="M377.88,261.7c-4.2-.05-8.59.99-11.44-2.86l7.65-4.39,3.79,7.25Z"/>
  <path d="M322.2,349.31c.4,7.68,2.88,8.88-2.22,15.34-.52.65.02,1.51-1.86,1.03l-1.56-5.17c3.15-3.3,7.63-5.15,1.57-8.34l4.07-2.86Z"/>
  <path d="M342.66,223.22l3.2,5.97-6.45,5.49c-3.03-4.89.59-6.18,1.57-10.99l1.67-.47Z"/>
  <path d="M410.63,256.8l-5.69,4.56-8.22-1.3c4.2-3.82,8.51-6.48,13.91-3.26Z"/>
  <path d="M308.15,222.26c-1.22.75-5.94.07-7.23-1.08l11.45-10.24-4.22,11.32Z"/>
  <path d="M451.98,68.41c-.53,2.3-.6,4.61-.84,6.94-.12,1.19.72,2.4-1.19,2.05l-6.97-8.17,9-.82Z"/>
  <polygon points="332.04 322.29 336.53 311.65 341.84 316.97 332.04 322.29"/>
  <polygon points="152.72 491.77 169.91 477.85 168.25 483.16 152.72 491.77"/>
  <path d="M296.82,253.5c-3.98.09-7.91-.52-11.88-.82-.92-.07-2.25.57-2.04-.8l8.47-3.97,5.44,5.59Z"/>
  <polygon points="446.65 197.85 437.66 206.02 438.48 197.03 446.65 197.85"/>
  <path d="M249.33,296.91c-2.32,2.73-4.5,5.54-5.84,8.93l-6.44-2.8,12.28-6.13Z"/>
  <polygon points="371.33 450.84 366.83 459.83 363.96 450.02 371.33 450.84"/>
  <path d="M92.94,504.04l-9,5.74,3.28-9.82c1.12.82,7.03,2.19,5.72,4.08Z"/>
  <path d="M264.07,172.45v5.73c-.52.52-8.86-1.39-9.82-2.87,1.45-.62,9.06-3.61,9.82-2.86Z"/>
  <path d="M325.48,110.23l-.82,7.36h-7.36c-.29-1.43.74-2.02,1.62-2.87.61-.59,6.05-5.06,6.56-4.49Z"/>
  <path d="M489.22,286.26l-4.9-2.04c3.17-3.25,1.96-6.64,7.36-6.96l-2.46,9.01Z"/>
  <polygon points="160.09 445.1 148.63 446.73 158.87 440.2 160.09 445.1"/>
  <polygon points="265.71 414.8 258.34 413.98 263.67 406.63 265.71 414.8"/>
  <path d="M376.12,430.01c.84.75-3.22,6.8-4.5,7.35l-2.87-6.53,7.37-.82Z"/>
  <path d="M205.94,517.16c-1.56,1.21-4.49,10.41-6.54,8.99l-2.47-4.89,9.01-4.1Z"/>
  <polygon points="136.34 269.89 136.34 275.62 126.52 273.97 136.34 269.89"/>
  <path d="M427.83,399.25c.28.27-.64,6.59-.85,7.76-.25,1.33.56,1.42-1.6,1.25l-2.46-9.83,4.91.82Z"/>
  <path d="M294.37,370.59l-5.73-1.64c-.36-2.98,2.85-4.53,3.28-7.35,2.81,1.71.72,6.4,2.45,8.99Z"/>
  <path d="M455.66,345.22l-2.47,5.72c-1.41,1.02-4.29-3.51-4.89-4.51-.3-.94,6.33-1.57,7.36-1.21Z"/>
  <polygon points="239.48 345.18 232.14 346.02 238.29 339.49 239.48 345.18"/>
  <path d="M350.03,461.47c-1.53.12-.79-2.65-.7-3.57.08-.91.32-5.81,1.93-5.42l2.68,2.85-3.9,6.15Z"/>
  <path d="M419.64,211.74l-6.54,3.28v-4.91c2.15.16,5.55-.89,6.54,1.63Z"/>
  <path d="M256.71,436.91l2.04-8.18,2.74,4.38c-.47.93-3.92,4.68-4.78,3.8Z"/>
  <polygon points="132.25 380.41 124.88 381.23 128.58 376.33 132.25 380.41"/>
  <path d="M77.39,379.61c-.5.68-2.15,7.41-3.27,6.54l-1.64-7.37,4.9.83Z"/>
  <polygon points="195.3 479.48 201.84 474.58 201.08 479.14 195.3 479.48"/>
  <path d="M60.2,445.93c-.86.57-1.39,7.47-3.26,5.72l-1.65-5.72h4.91Z"/>
  <polygon points="154.36 542.54 148.63 542.13 154.35 537.63 154.36 542.54"/>
  <path d="M55.29,496.68l6.54-6.54c-.32,4.51-1.79,6.61-6.54,6.54Z"/>
  <path d="M232.95,448.38l.83,4.9-4.91.83c.08-.95,2.92-7.11,4.09-5.73Z"/>
  <path d="M469.09,383.26c-1.88.46-1.34-.36-1.86-1.03-.78-1-5.12-8.18-4.68-8.78l13.09-5.74-6.55,15.56Z"/>
  <path d="M498.31,188l-9.82.82,3.28-13.91c3.7,3.13,4.03,9.05,6.54,13.09Z"/>
  <path d="M456.48,425.11l-9.01-.82,1.64-7.36c1.33-1.41,6.98,6.92,7.36,8.18Z"/>
  <polygon points="532.05 345.63 526.33 352.99 525.03 348.05 532.05 345.63"/>
  <path d="M513.45,318.14c.91.99-4.15,5.86-4.91,4.9l-.82-6.54,5.73,1.64Z"/>
  <polygon points="463.02 183.47 455.66 184.3 458.51 179.43 463.02 183.47"/>
  <path d="M506.58,254.05c-.32-4.76-.58-10.13,4.06-3.74l-4.06,3.74Z"/>
  <path d="M520.96,219.58c.41-.73-1.14-6.36,1.21-5.71,6.21,1.71-.41,6.66-1.21,5.71Z"/>
  <path d="M238.68,503.92l-19.65,10.65c2.99-2.77,11.55-12.39,14.79-13.52,2.14-.75,5.21,2.42,4.86,2.87Z"/>
  <path d="M273.9,507.75l-6.13,10.63c-5.38-7.05.83-7.85,6.13-10.63Z"/>
  <polygon points="325.87 459.83 325.05 466.37 318.53 461.05 325.87 459.83"/>
  <path d="M488.33,143.02l-25.37,30.29,7-19.61c2.27-1.37,17.22-11.73,18.37-10.68Z"/>
  <polygon points="484.63 127.01 480.11 136.02 475.64 132.33 484.63 127.01"/>
  <path d="M496.61,399.92c-1.22-.09-6.27,1.09-5.61-1.1,1.76-5.9,3.39-6.63,8.97-8.63l-3.36,9.73Z"/>
  <path d="M316.45,86.88l-9.82,3.28,4.92-10.63c.41-.31,5.66,6.3,4.9,7.36Z"/>
  <path d="M114.79,401.07c-3.97-.28-7.85-.99-11.79-1.52-.91-.12-2.28.17-1.99-.68l8.66-1.79,5.12,3.98Z"/>
  <path d="M243.69,187.39l-10.06,2.44,5.8-10.18c.44-.28,5.11,6.76,4.27,7.74Z"/>
  <g>
    <g>
      <g>
        <path d="M919.06,450.57l-.12,2.23-1.13,1.69-1.58-2.01.33,1.23-.85.39-.27-2.51c.06-.17.14-.39.37-.36l.38,1.15c.14-.48.46-.91.55-1.41.06-.3-.02-.59.07-.89.07-.25.44-.53.44-.86.72.4.81,1.57,1.82,1.34Z"/>
        <path d="M925.44,448.01l-.03,1.71c-.98.37-1.73,1.14-2.58,1.71-.38-.22.04-1.53-.05-1.62-.63.06-.9.03-1.05-.63,0-.32.55-.23.72-.43s.34-1.45.44-1.52c.89.09,1.75.41,2.56.77Z"/>
        <path d="M923.14,454.27c-.11.14-.97.72-1.14.68-.25-.05-1.8-1.6-1.78-1.73.73-1.48,2.32-1.18,3.57-1.88.09.07.12.09.12.21,0,.18-.69,2.61-.77,2.72Z"/>
        <path d="M915.05,450.1l-1.05-2.39c.93-.26,1.89-.63,2.87-.53.16.08.58.95.57,1.14,0,.16-.66,1.3-.76,1.35-.11.05-.3-.06-.48-.01-.38.09-.77.32-1.14.44Z"/>
        <path d="M913.8,447.9l1.54,4.05c-.33.15-1.45,1.28-1.67,1.29-.08,0-.32-.07-.34-.15.14-1.5-.18-3.31,0-4.77.04-.31.18-.39.48-.42Z"/>
        <polygon points="922.78 446.46 922.29 448.55 920.5 449.23 919.58 447.8 922.78 446.46"/>
        <path d="M919.31,455.09c-.09-.13-.43-.2-.34-.54.04-.14.93-1.14,1.07-1.11l1.58,1.94c-.18.22-.5.61-.8.6-.14,0-.32-.18-.5-.23-.19-.05-.4.02-.6-.07-.21-.09-.3-.42-.42-.59Z"/>
        <path d="M918.48,450.29c-.22.05-.16-.04-.22-.12-.07-.1-.49-.76-.51-.83-.04-.16.27-.22.25-.52-.01-.23-.75-1.52-.67-1.59.67-.05,1.37.22,1.9.62-.32.78-.67,1.6-.75,2.44Z"/>
        <path d="M927.06,450.74c-.13.14-.76.37-.96.5-.14.09-.12.35-.35.29l-.76-1.1,2.58-1.29c.08.1-.39,1.49-.5,1.6Z"/>
        <polygon points="925.46 452.01 925.45 453.52 924.55 453.99 923.75 453.53 924.13 451.82 925.46 452.01"/>
        <path d="M920.65,449.55c.07.09.16.2.04.31l-1.11.62-.89-.62c-.02-.22.85-1.16,1.1-1.18s.49.52.62.69c.07.09.19.13.24.19Z"/>
        <path d="M915.43,454.87c-.19.2-.36.47-.7.37s-.26-.75-.5-.66c-.25.1-.34.78-.91.57l.04-1.25c.08-.12.14-.07.24-.05.55.08,1.2.4,1.76.52.12.09.04.35.06.49.17-.18.31-.46.45-.58.21-.16.64-.25.88-.38.1.58.22,1.24-.09,1.77l-1.15.14c-.06-.32-.06-.64-.1-.96Z"/>
        <path d="M926.99,453.15l-.39,1.52-1.81.3c.06-1.23,1.26-1.41,2.2-1.82Z"/>
        <path d="M920.35,450.19c.26.35,1.21,1.65.46,1.9-.21.07-1.24-.42-1.46-.62-.07-.22.81-1.06,1-1.28Z"/>
        <path d="M925.89,457.36s.13.13.24.1c.04-.54-.23-1.46.58-.99l-.06,1c-.82.06-1.49.44-2.19.84l-.67-.75.1-.19c.64.05,1.38-.07,2.01,0Z"/>
        <path d="M922.5,450.1c-.13.19-.13.56-.29.72-.11.1-.96.38-1.1.24l-.41-.83c.85-1.75.79-.38,1.22-.17.18.09.39.04.57.05Z"/>
        <path d="M922.99,455.82c-.48-1.41.2-1.48,1.28-.85-.1.88-.45.96-1.28.85Z"/>
        <path d="M912.75,456.31v1.05c.28-.16,1.06.64.96.77-.48-.2-1.03-.08-1.53,0,.04-.35-.08-.85.02-1.17.02-.06.45-.77.55-.64Z"/>
        <path d="M918.48,456.12l-1.62-.29.48-1.24c.13-.03.16.02.24.09.07.07.71.79.76.87.12.19.18.34.15.57Z"/>
        <path d="M920.68,452.29c.06.08-1.26,1.16-1.43,1.24l-.1-1.43c.52-.04,1.03.08,1.53.19Z"/>
        <path d="M925.46,455.06v1.43l-1.15-.44c.06-.84.38-.94,1.15-1Z"/>
        <path d="M912.18,454.68c.11-.12,1.05.66,1.06.86l.38-.14c-.11.62-1.02.44-1.43.81v-1.53Z"/>
        <path d="M915.04,450.29l1.15-.48.29,1.38-.2.11c-.51-.18-.91-.59-1.24-1.01Z"/>
        <path d="M915.33,452.48l.19,1.62-1.34-.57c-.03-.15.02-.15.1-.23.17-.17.58-.54.76-.68.1-.07.12-.19.29-.14Z"/>
        <polygon points="912.75 448.57 912.75 450.67 912.17 450.24 912.18 448.82 912.75 448.57"/>
        <path d="M919.44,457.26c-.14.11-.67-1.32-.68-1.48,0-.73,1.02.21,1.05.3.11.32-.33.85-.37,1.18Z"/>
        <path d="M915.04,455.64v.28s-1.72.58-1.72.58l.82-1.34c.34.13.48.52.9.48Z"/>
        <path d="M922.5,457.36l-.09.63c-.8,0-1.63.61-1.34-.63h1.43Z"/>
        <path d="M928.9,451.62c.11.11-.54.91-.64,1.06l-1.18-.29c-.04-.22.01-.15.12-.21.44-.24,1.21-.35,1.69-.55Z"/>
        <path d="M918.88,453.81c.1.06.47-.09.37.15l-.63.43.15.53c-.19.39-.77-.16-.75-.36l.7-1.21.16.47Z"/>
        <path d="M928.23,447.23l-.59,1.13c-2.14-.23-.32-.85.59-1.13Z"/>
        <path d="M916.57,457.36v.67s-1.01,0-1.01,0c-.13-.02-.5-.49-.52-.68h1.53Z"/>
        <path d="M915.23,458.03c-.79.13-1.29.17-1.62-.67.77-.08,1.2-.02,1.62.67Z"/>
        <path d="M926.13,453.25v-1.28s.48-.25.48-.25c.18.13.13,1.69-.48,1.53Z"/>
        <polygon points="917.82 458.03 916.76 458.03 916.76 457.36 917.73 457.4 917.82 458.03"/>
        <path d="M912.18,451.43l.58,1.38v.14c-.39-.13-.29.19-.58.19v-1.72Z"/>
        <path d="M919.33,457.46v.57c-.57.14-.82-.37-1.33-.48l.22-.17,1.11.08Z"/>
        <path d="M912.75,454.68l-.53-.28c-.24-.35.39-.83.34-1.25.04-.03.19.13.19.14v1.39Z"/>
        <polygon points="924.98 450.86 923.55 451.14 924.65 450.29 924.98 450.86"/>
        <path d="M918.96,446.46l-.75-.54.32-.8c.14,0,.4,1.12.43,1.34Z"/>
        <path d="M923.17,443.79l-.47,1.11c-.07.42-.51-.32-.48-.47l.95-.63Z"/>
        <path d="M912.27,450.76s-.65.77-.76.67l-.19-.86.96.19Z"/>
        <path d="M926.13,449.52v-.91c.05-.38,1.29.84,0,.91Z"/>
        <polygon points="923.17 458.7 922.31 458.12 923.21 457.84 923.32 458.03 923.17 458.7"/>
        <path d="M924.4,454.21c-.17.93-.92.28-.76-.39l.76.39Z"/>
        <path d="M924.5,456.59v.1h-3.2c-.18,0-.62.2-.91.09l.72-.19h3.39Z"/>
        <path d="M916.38,445.79l-.19.76-.67-.62c-.11-.27.75-.1.86-.14Z"/>
        <polygon points="913.99 445.51 913.66 446.17 913.13 445.41 913.99 445.51"/>
        <path d="M926.61,455.92c-.44-.21-.8-1.2-.04-.96l.04.96Z"/>
        <polygon points="915.04 446.94 914.28 447.04 914.8 446.18 915.04 446.94"/>
        <path d="M917.91,458.5v-.67c.33-.03.53.15.67.43l-.67.24Z"/>
        <path d="M927.56,455.92l-.76.1c-.07-.09.34-.76.43-.76l.33.67Z"/>
        <path d="M915.43,456.69c-.02-.17.22-.09.33-.1.92-.04,1.81.04,2.72.1.02.16-.34.11-.43.1-.18-.01-.43-.1-.47-.1h-2.15Z"/>
        <polygon points="930.72 451.34 930.42 452 929.76 451.77 930.72 451.34"/>
        <polygon points="912.75 451.81 912.28 451.28 912.7 450.76 912.75 451.81"/>
        <polygon points="924.22 446.56 923.55 446.65 924.07 445.89 924.22 446.56"/>
        <path d="M926.7,457.74l-.06.29-.99.09c.19-.37.71-.26,1.05-.38Z"/>
        <path d="M922.02,451.34c-.03.13-.32.59-.48.48l-.19-.57.67.1Z"/>
        <path d="M925.27,451.62l-.67-.05c.17-.2.29-.45.57-.53l.1.57Z"/>
        <path d="M923.55,457.36c.23.18-.8.52-.86.24-.07-.33.69-.23.86-.24Z"/>
        <path d="M922.59,455.83l-.67.1c-.01-.29.21-.45.43-.57l.24.48Z"/>
        <path d="M913.61,453.35c.13.18-.4.45-.57.38v-.57s.57.19.57.19Z"/>
      </g>
      <g>
        <path d="M979.52,445.3c-.2.34,2.22,6.63,2.48,7.51-.02.23-1.09,1.43-1.31,1.54-.2.09-2.5.62-2.6.54l.81-1.34-1.41-2.99,1.52-5.1c-2.15-1.72,1.52-2.89,1.1-.71-.09.44-.53.48-.58.55Z"/>
        <path d="M976.05,452.74c-.66.14-1.36-.09-1.7-.68l.18-3.86c-1.8-.37-.25-2.31.46-1.31.35.49-.03.75-.09,1.09-.08.5,1.65,2.49,1.95,3.06l-.81,1.7Z"/>
        <path d="M984.03,448.15l.21,3.83-1.89.49-.64-1.49c.3-.64,1.82-2.26,1.94-2.82.07-.36-.45-.61-.11-1.16.76-1.25,2.28.88.5,1.15Z"/>
        <path d="M983.42,455.13l-3.08.83,2.96-.23-1.18,1.78,1.01-.68.89,1.04c-.45.3-1.15.26-1.63.04-.18-.08-.18-.32-.34-.38-.49-.16-1.4-.1-1.93-.15-.04-.03-.09-.86-.08-.99.08-1.2,1.37-2.43,2.26-3.15l1.14,1.89Z"/>
        <path d="M988.65,449.2l-1.37,3.2-1.37.11c-.09-.09.28-1.45.42-1.66.31-.46,1.87-1.33,2.02-1.67.1-.25-.55-1.24.35-1.42,1.43-.28,1.28,1.81-.05,1.42Z"/>
        <path d="M985.79,451.33c-.13.61-.75,3.65-1.27,3.78-.87.21-1.6-1.65-2.05-2.18.01-.21,1.62-.42,1.93-.56.19-.08,1.34-1.11,1.39-1.04Z"/>
        <path d="M972.15,452.63c-.31,0-.69-.1-.88-.35-.44-.58-.82-2.48-1.31-2.97-.15-.15-.43-.02-.68-.14-1.05-.49-.09-1.93.81-1.29.53.38.09,1.01.22,1.31.23.52,1.91,1.4,2.14,1.91.21.46-.23,1.06-.3,1.53Z"/>
        <path d="M975.24,454.54c-.8.15-1.34-.33-2.12-.25-.35-1.09-.98-1.79-.08-2.83,1.03.97,2.47,1.37,2.19,3.08Z"/>
        <path d="M977.37,451.22c.06.66,1.36,2.05.89,2.6-.28.33-2.26.37-2.78.6-.04-.05.11-1.11.17-1.19.12-.16.4-.06.51-.14.08-.05.79-1.47.95-1.72.07-.12-.01-.21.26-.15Z"/>
        <path d="M987.22,452.88c-.56.8-.97,2.45-2.13,2.37-.1-.1.48-2.09.65-2.26.25-.25,1.11-.06,1.49-.11Z"/>
        <path d="M977.82,455.99c.05.05.27.66.27.73,0,.04-.44.17-.37.58.02.11.66.25.48.67h-.95c-.12-.49.36-.49.35-.83-.55-.12-1.1-.41-1.66-.12,0-.29-.51-.74-.06-.83s1.65-.5,1.93-.21Z"/>
        <polygon points="974.04 454.55 974.65 455.84 973.46 455.84 973.45 456.54 972.69 456.79 972.39 455.6 973.34 455.72 973.11 454.66 974.04 454.55"/>
        <path d="M979.85,456.07c-.68-.18-1.04.02-1.65.25l-.36-1.07,2.07-.47.14.24-.2,1.05Z"/>
        <path d="M985.65,456.94c.12.33.15.52.55.56.14.04.07.16.01.25-.3.45-1.44.61-1.96.71-.26-.28.9-1.39,1.12-1.62l.27.11Z"/>
        <path d="M984.96,456.55l-1.54-.12.47-1.25c.42-.3,1.23,1.22,1.07,1.37Z"/>
        <polygon points="972.14 453.01 972.27 454.06 971.33 454.3 971.09 452.64 972.14 453.01"/>
        <path d="M974.28,457.04c.06.04.5,1.22.61,1.41l-1.42-.12c-.08-.06.27-.54.33-.68.12-.27.09-.87.49-.62Z"/>
        <path d="M976.16,454.8s.16.26.1.33l-.96.47c-1.64-.82.28-1.32.86-.8Z"/>
        <path d="M976.78,455.6l-.24-1.07,1.36-.24.12.23c-.32.42-.67,1-1.25,1.07Z"/>
        <path d="M980.1,458.33l-1.06-.41.71-.89c.18-.04.11.14.15.26.05.17.28.96.2,1.04Z"/>
        <path d="M985.97,455.25c.71.63-.59,1.35-.66.65-.04-.43.39-.44.66-.65Z"/>
        <path d="M983.66,458.45c.03.31.02.2-.18.23-.53.1-1.08.13-1.6.24.17-.93,1.1-.34,1.78-.47Z"/>
        <path d="M975.83,457.98c-.32-.02-.72.12-.95-.18.48-.61,1.02-.87.95.18Z"/>
        <path d="M977.14,457.74c-.42-.09-.57-.04-.95.12l.24-.82c.31-.21.79.63.7.71Z"/>
        <polygon points="986.74 455.6 986.26 455.19 986.86 454.42 986.74 455.6"/>
        <path d="M984.13,457.5c-.09-.27-.09-.45,0-.71l.71.3-.71.41Z"/>
      </g>
      <g>
        <path d="M953.38,457.52l.8-.87c.64-.14,1.3.01,1.89.26l1.07-.55c-.61-.5-.66-1.74-1.62-1.37l.2-.51-.91-.31.36,1.02-.36-.61-.35.18-.45-.54.4-.2c-.23-.59-1.37-1.33-.66-1.88l.05.41.41-.15c-.5-.17,0-.84-.05-1.18s-.66-.96-.66-1.16l.36-.45c.1,0,.57.91.65,1.08.24.51.03.75.72.85l-.26.4-.25-.2c.06.44-.27.47-.4.75.47.53.83,1.26,1.27,1.79.12.14.39.53.55.36l-.3-.46c.12-.1.85.33.91.46.12.25-.54.17-.36.36.47.49.57.08.8.12.51.08,1.44,2.77.61,3.12-.14.03-.5-.22-.54-.36-.09-.35.39-.31.4-.59l-.46-.66-.05,1.02-1.07-.61-.13.02c-.03.12-.3.49-.37.49h-2.19Z"/>
        <path d="M945.51,457.52c-.72-.11-.76-.63-.15-.92l-.41-.1c-.08-.74.71-.46.89-.63.05-.05.41-.6.52-.75.07-.09.1-.23.12-.34.17-.03.09.14.1.25.02.37.05,1.15-.41,1.17l.15-.41-.34.22.09.19-.56.2.1.31h3.25c.09,0,.59.4.56.56s-.12.14-.25.05c-.25-.16-.26-.52-.56-.51v.5c.29.03.59.13.71.42-.4-.16-.85-.03-1.22-.15-.32-.1-.29-.34-.5-.46v.36c.44.32.43.5.15.96-.24-.31-.62-.19-.97-.2l.61-.71c-.59-.06-1.32.08-1.88,0Z"/>
        <path d="M947.91,450.38c-.1-.2-.14-.38-.08-.6.04-.13,1.08-1.65,1.26-1.9.14-.19.52-.78.71-.83.5-.1.66.39.48.79-.48.37-1.51,2.45-1.93,2.55-.1.02-.37.03-.44-.02Z"/>
        <path d="M951.15,447.76l-.41.06c-.49-.61-.06-.95.57-.68.21.47,1.94,2.57,1.86,2.88-.07.29-.48.49-.76.28-.12-.09-1.33-1.88-1.35-2.01-.02-.19.1-.35.08-.54Z"/>
        <path d="M949.52,445.82c.15-.44.34-.55.55-.93.13-.23.07-.72.47-.7l1.53,2.49.41-.56.41.91c-.17.06-1.02-.27-1.02-.05l.61.22c.12.34.12.61,0,.95l-1.62-2.08.4-.35-.91-.46c.16-.1.31-.35.05-.46-.32-.13-.06.67-.07.75-.02.11-.36.42-.38.62l-.41-.36c-.02.06.06.21-.06.21l-1.06-.11.46-1.12c.26.32.4.7.66,1.01Z"/>
        <path d="M947.49,452.54l-1.73,2.64c0-.43-.42-.24-.62-.35-.12-.1-.12-.12-.05-.26.38-.73,1.26-1.45,1.68-2.19l.71.16Z"/>
        <path d="M950.44,453.14l1.02-.05-1.42,2.08.2-1.42-.91-.05,1.32-2.08c.18-.02.09.22.08.33-.03.19-.34,1.14-.28,1.19Z"/>
        <path d="M953.79,453.65c-1.48-.3-2.11-2.08-1.93-3.46l1.93,3.46Z"/>
        <path d="M949.11,450.2c.17,1.36-.52,3.12-1.93,3.46.62-1.05,1.06-2.21,1.68-3.25.08-.13-.02-.26.25-.2Z"/>
        <path d="M951.35,457.82l-.57.8c-1.03-.19-1.85.4-2.58-.65-.04-.23.1-.14.25-.15.29-.02.58.01.87,0l-.41.51h1.02s-.51-.51-.51-.51h1.93Z"/>
        <path d="M951.5,456.3c.07,0,.63.13.46.3-.65.15-1.48.53-2.14.36-.12-.03-1.33-.66-.76-.66.74,0,1.74-.09,2.44,0Z"/>
        <path d="M949.72,446.23c.03.15-.03.24-.09.36-.07.14-.94,1.43-1.02,1.5-.11.1-.17.08-.31.07-.21-.2.42-1.79.63-1.91.16-.09.58.02.79-.02Z"/>
        <path d="M952.77,456.7c-.15.31.17.57.41.71l-.1-.71h.61c-.42.7-.28.9-1.17.92-1.46.02-.86-1.11.26-.92Z"/>
        <path d="M955.42,456.19l.17-.21h.95s0,.41,0,.41c-.28-.02-.59.04-.86,0-.43-.07-.56-.48-1.02-.09-.19-.04-.43-1.28-.1-1.42l.86,1.32Z"/>
        <path d="M943.22,456.6c-.09-.02-.31.06-.31-.05.18-.69.61-.97,1.32-.86l-.41,1.02c-.13-.06-.19-.16-.36-.2-.3-.07-.24.09-.25.1.16.04.4-.04.41.25l-.29.16.09.33-.3.26.42.05c-.04.5.28.11.67.09.08,0,.36.06.34.12-.17.67-.84.66-1.17.15l-.76.61c.02-.2-.05-.47.01-.65.05-.14.28-.13.3-.23.02-.12-.11-.32-.11-.49,0-.39.09-.51.41-.66Z"/>
        <path d="M955.67,458.33c-.15-.03-.49-.35-.56-.51.68.05,1.34-.19,2.02-.09l.11.6c-.46-.07-1.15.09-1.58,0Z"/>
        <path d="M952.67,457.82c-.17.83-.92.81-1.63.81l.43-.79,1.2-.02Z"/>
        <path d="M943.42,455.58c.09-.7.8-1.23,1.42-.76-.41.69-.54.88-1.42.76Z"/>
        <path d="M954.09,458.84l-.21-.06-.3-1.06c.44-.03.91.09,1.32-.1l-.81,1.22Z"/>
        <path d="M948,449.08l-.76,1.63c-.37-.35-.35-.86-.46-1.32.52.19.76-.2,1.22-.31Z"/>
        <path d="M945.97,451.92c-.13-.15.47-1.39.71-1.52.14.42.21,1.39-.3,1.57-.06.02-.39-.04-.41-.05Z"/>
        <path d="M941.69,456.09c-.35.46-.96.68-1.42,1.02l.4-1.18,1.02.16Z"/>
        <path d="M955.42,448.57c-.17.12-.78,1.63-.91,1.52l-.41-.76,1.32-.76Z"/>
        <path d="M945.76,457.82l-.56.61-.45-.4.51,1.02-1.12.2c-.07-.07.49-1.32.63-1.4.18-.1.75.02.99-.02Z"/>
        <path d="M950.44,448.57l.34-.2.37.4c-.54.09-.66.51-1.21.09.05-.36.25-.69.6-.8l-.1.51Z"/>
        <path d="M945.66,452.03c.02.15-.28.16-.38.17-.4.07-.84.08-1.24.13l.57-.72,1.05.42Z"/>
        <path d="M946.17,461.38l-1-.56.29-.87c.4.32.43.99.71,1.42Z"/>
        <path d="M946.88,445.93l-.81-.1v-1.12c.17.09.92,1.12.81,1.22Z"/>
        <path d="M951.66,460.57c-.73-.2-1.06-.39-.91-1.22l.91,1.22Z"/>
        <path d="M958.37,458.94l-.91.1-.1-.54c.16-.52,1.16.32,1.01.44Z"/>
        <path d="M944.54,457.72l-.67-.81c-.06-.25.34-.24.49-.19.46.14.17.67.17,1Z"/>
        <path d="M958.15,455.06c-.15.08-1.12-.18-.9-.39l1.22-.31-.32.7Z"/>
        <path d="M956.64,453.14l.1.71-1.12-.1c.05-.16.97-.65,1.02-.61Z"/>
        <path d="M943.62,454.06c.03.17-.14.09-.25.1-.29.01-.58,0-.87,0l.1-.61,1.02.51Z"/>
        <polygon points="957.15 452.03 957.5 451.11 957.85 451.56 957.15 452.03"/>
        <path d="M947.18,448.57c-.26,0-1.06-.81-.56-.91.23-.05.6.86.56.91Z"/>
        <polygon points="942.1 460.67 941.49 460.41 942.05 459.75 942.1 460.67"/>
        <path d="M955.42,446.84c-.09.07-.46.89-.61.71l-.1-.61.71-.1Z"/>
      </g>
    </g>
    <text class="st1" transform="translate(862.39 367.02)"><tspan x="0" y="0">Discipline gathers the </tspan><tspan x="0" y="17.87">pieces.</tspan><tspan x="0" y="35.74">Knowledge shapes </tspan><tspan x="0" y="53.61">them into vision.</tspan><tspan x="0" y="71.48">Power seals them into </tspan><tspan x="0" y="89.35">armor.</tspan></text>
  </g>
  <text class="st0" transform="translate(-237.24 44.2)"><tspan x="0" y="0">Shatter The Limits .</tspan></text>
</svg>